<svg xmlns="http://www.w3.org/2000/svg" version="1.1" xmlns:xlink="http://www.w3.org/1999/xlink" xmlns:svgjs="http://svgjs.dev/svgjs" width="1440" height="560" preserveAspectRatio="none" viewBox="0 0 1440 560"><g mask="url(&quot;#SvgjsMask1614&quot;)" fill="none"><rect width="1440" height="560" x="0" y="0" fill="url(&quot;#SvgjsLinearGradient1615&quot;)"></rect><path d="M-70.95 387.4L-70.95 387.4" stroke="#132e65" stroke-width="1.5"></path><path d="M-70.95 387.4L-46.08 534.74" stroke="#132e65" stroke-width="1.5"></path><path d="M-70.95 387.4L104.21 346.31" stroke="#132e65" stroke-width="1.5"></path><path d="M-70.95 387.4L94.86 555.86" stroke="#132e65" stroke-width="1.5"></path><path d="M-46.08 534.74L-46.08 534.74" stroke="#132e65" stroke-width="1.5"></path><path d="M-46.08 534.74L-98.98 661.48" stroke="#132e65" stroke-width="1.5"></path><path d="M-46.08 534.74L94.86 555.86" stroke="#132e65" stroke-width="1.5"></path><path d="M-46.08 534.74L83.55 652.21" stroke="#132e65" stroke-width="1.5"></path><path d="M-98.98 661.48L-98.98 661.48" stroke="#132e65" stroke-width="1.5"></path><path d="M-98.98 661.48L83.55 652.21" stroke="#132e65" stroke-width="1.5"></path><path d="M-98.98 661.48L94.86 555.86" stroke="#132e65" stroke-width="1.5"></path><path d="M-98.98 661.48L-70.95 387.4" stroke="#132e65" stroke-width="1.5"></path><path d="M-98.98 661.48L245.17 661.98" stroke="#132e65" stroke-width="1.5"></path><path d="M-98.98 661.48L236.59 511.36" stroke="#132e65" stroke-width="1.5"></path><path d="M104.21 346.31L104.21 346.31" stroke="#132e65" stroke-width="1.5"></path><path d="M94.86 555.86L94.86 555.86" stroke="#132e65" stroke-width="1.5"></path><path d="M94.86 555.86L83.55 652.21" stroke="#132e65" stroke-width="1.5"></path><path d="M94.86 555.86L236.59 511.36" stroke="#132e65" stroke-width="1.5"></path><path d="M94.86 555.86L245.17 661.98" stroke="#132e65" stroke-width="1.5"></path><path d="M94.86 555.86L104.21 346.31" stroke="#132e65" stroke-width="1.5"></path><path d="M83.55 652.21L83.55 652.21" stroke="#132e65" stroke-width="1.5"></path><path d="M83.55 652.21L245.17 661.98" stroke="#132e65" stroke-width="1.5"></path><path d="M236.59 511.36L236.59 511.36" stroke="#132e65" stroke-width="1.5"></path><path d="M236.59 511.36L362.89 511.88" stroke="#132e65" stroke-width="1.5"></path><path d="M236.59 511.36L245.17 661.98" stroke="#132e65" stroke-width="1.5"></path><path d="M236.59 511.36L83.55 652.21" stroke="#132e65" stroke-width="1.5"></path><path d="M236.59 511.36L104.21 346.31" stroke="#132e65" stroke-width="1.5"></path><path d="M236.59 511.36L408.39 379.88" stroke="#132e65" stroke-width="1.5"></path><path d="M245.17 661.98L245.17 661.98" stroke="#132e65" stroke-width="1.5"></path><path d="M245.17 661.98L394.71 704.63" stroke="#132e65" stroke-width="1.5"></path><path d="M408.39 379.88L408.39 379.88" stroke="#132e65" stroke-width="1.5"></path><path d="M408.39 379.88L362.89 511.88" stroke="#132e65" stroke-width="1.5"></path><path d="M408.39 379.88L551.27 401.35" stroke="#132e65" stroke-width="1.5"></path><path d="M408.39 379.88L488.03 521.42" stroke="#132e65" stroke-width="1.5"></path><path d="M362.89 511.88L362.89 511.88" stroke="#132e65" stroke-width="1.5"></path><path d="M362.89 511.88L488.03 521.42" stroke="#132e65" stroke-width="1.5"></path><path d="M394.71 704.63L394.71 704.63" stroke="#132e65" stroke-width="1.5"></path><path d="M394.71 704.63L534.62 695.78" stroke="#132e65" stroke-width="1.5"></path><path d="M394.71 704.63L362.89 511.88" stroke="#132e65" stroke-width="1.5"></path><path d="M394.71 704.63L488.03 521.42" stroke="#132e65" stroke-width="1.5"></path><path d="M394.71 704.63L236.59 511.36" stroke="#132e65" stroke-width="1.5"></path><path d="M551.27 401.35L551.27 401.35" stroke="#132e65" stroke-width="1.5"></path><path d="M551.27 401.35L656.71 399.02" stroke="#132e65" stroke-width="1.5"></path><path d="M551.27 401.35L488.03 521.42" stroke="#132e65" stroke-width="1.5"></path><path d="M488.03 521.42L488.03 521.42" stroke="#132e65" stroke-width="1.5"></path><path d="M534.62 695.78L534.62 695.78" stroke="#132e65" stroke-width="1.5"></path><path d="M534.62 695.78L654.57 653.65" stroke="#132e65" stroke-width="1.5"></path><path d="M695.72 242.86L695.72 242.86" stroke="#132e65" stroke-width="1.5"></path><path d="M695.72 242.86L790.55 231.21" stroke="#132e65" stroke-width="1.5"></path><path d="M695.72 242.86L791.81 346.88" stroke="#132e65" stroke-width="1.5"></path><path d="M656.71 399.02L656.71 399.02" stroke="#132e65" stroke-width="1.5"></path><path d="M656.71 399.02L661.21 493.34" stroke="#132e65" stroke-width="1.5"></path><path d="M656.71 399.02L791.81 346.88" stroke="#132e65" stroke-width="1.5"></path><path d="M661.21 493.34L661.21 493.34" stroke="#132e65" stroke-width="1.5"></path><path d="M661.21 493.34L551.27 401.35" stroke="#132e65" stroke-width="1.5"></path><path d="M661.21 493.34L654.57 653.65" stroke="#132e65" stroke-width="1.5"></path><path d="M654.57 653.65L654.57 653.65" stroke="#132e65" stroke-width="1.5"></path><path d="M654.57 653.65L809.51 664.69" stroke="#132e65" stroke-width="1.5"></path><path d="M853.31 72.02L853.31 72.02" stroke="#132e65" stroke-width="1.5"></path><path d="M853.31 72.02L972.43 67.01" stroke="#132e65" stroke-width="1.5"></path><path d="M853.31 72.02L790.55 231.21" stroke="#132e65" stroke-width="1.5"></path><path d="M853.31 72.02L951.99 226.14" stroke="#132e65" stroke-width="1.5"></path><path d="M853.31 72.02L695.72 242.86" stroke="#132e65" stroke-width="1.5"></path><path d="M853.31 72.02L791.81 346.88" stroke="#132e65" stroke-width="1.5"></path><path d="M790.55 231.21L790.55 231.21" stroke="#132e65" stroke-width="1.5"></path><path d="M790.55 231.21L791.81 346.88" stroke="#132e65" stroke-width="1.5"></path><path d="M790.55 231.21L951.99 226.14" stroke="#132e65" stroke-width="1.5"></path><path d="M791.81 346.88L791.81 346.88" stroke="#132e65" stroke-width="1.5"></path><path d="M842.86 551.22L842.86 551.22" stroke="#132e65" stroke-width="1.5"></path><path d="M842.86 551.22L955.01 548.55" stroke="#132e65" stroke-width="1.5"></path><path d="M842.86 551.22L809.51 664.69" stroke="#132e65" stroke-width="1.5"></path><path d="M842.86 551.22L952.6 656.04" stroke="#132e65" stroke-width="1.5"></path><path d="M842.86 551.22L661.21 493.34" stroke="#132e65" stroke-width="1.5"></path><path d="M842.86 551.22L791.81 346.88" stroke="#132e65" stroke-width="1.5"></path><path d="M842.86 551.22L654.57 653.65" stroke="#132e65" stroke-width="1.5"></path><path d="M809.51 664.69L809.51 664.69" stroke="#132e65" stroke-width="1.5"></path><path d="M809.51 664.69L952.6 656.04" stroke="#132e65" stroke-width="1.5"></path><path d="M809.51 664.69L955.01 548.55" stroke="#132e65" stroke-width="1.5"></path><path d="M972.43 67.01L972.43 67.01" stroke="#132e65" stroke-width="1.5"></path><path d="M972.43 67.01L951.99 226.14" stroke="#132e65" stroke-width="1.5"></path><path d="M972.43 67.01L1135.15 101.7" stroke="#132e65" stroke-width="1.5"></path><path d="M951.99 226.14L951.99 226.14" stroke="#132e65" stroke-width="1.5"></path><path d="M951.99 226.14L1009.41 350.53" stroke="#132e65" stroke-width="1.5"></path><path d="M951.99 226.14L1099.63 221.46" stroke="#132e65" stroke-width="1.5"></path><path d="M1009.41 350.53L1009.41 350.53" stroke="#132e65" stroke-width="1.5"></path><path d="M1009.41 350.53L1097.95 344.57" stroke="#132e65" stroke-width="1.5"></path><path d="M1009.41 350.53L1099.63 221.46" stroke="#132e65" stroke-width="1.5"></path><path d="M1009.41 350.53L955.01 548.55" stroke="#132e65" stroke-width="1.5"></path><path d="M1009.41 350.53L791.81 346.88" stroke="#132e65" stroke-width="1.5"></path><path d="M955.01 548.55L955.01 548.55" stroke="#132e65" stroke-width="1.5"></path><path d="M955.01 548.55L952.6 656.04" stroke="#132e65" stroke-width="1.5"></path><path d="M952.6 656.04L952.6 656.04" stroke="#132e65" stroke-width="1.5"></path><path d="M1135.15 101.7L1135.15 101.7" stroke="#132e65" stroke-width="1.5"></path><path d="M1135.15 101.7L1259.75 97.16" stroke="#132e65" stroke-width="1.5"></path><path d="M1135.15 101.7L1099.63 221.46" stroke="#132e65" stroke-width="1.5"></path><path d="M1135.15 101.7L1283.53 224.09" stroke="#132e65" stroke-width="1.5"></path><path d="M1135.15 101.7L1241.82 -76.12" stroke="#132e65" stroke-width="1.5"></path><path d="M1099.63 221.46L1099.63 221.46" stroke="#132e65" stroke-width="1.5"></path><path d="M1099.63 221.46L1097.95 344.57" stroke="#132e65" stroke-width="1.5"></path><path d="M1097.95 344.57L1097.95 344.57" stroke="#132e65" stroke-width="1.5"></path><path d="M1097.95 344.57L951.99 226.14" stroke="#132e65" stroke-width="1.5"></path><path d="M1125.98 542.78L1125.98 542.78" stroke="#132e65" stroke-width="1.5"></path><path d="M1125.98 542.78L1129.98 675.19" stroke="#132e65" stroke-width="1.5"></path><path d="M1125.98 542.78L955.01 548.55" stroke="#132e65" stroke-width="1.5"></path><path d="M1125.98 542.78L1297.34 494.54" stroke="#132e65" stroke-width="1.5"></path><path d="M1125.98 542.78L1259.52 667.77" stroke="#132e65" stroke-width="1.5"></path><path d="M1129.98 675.19L1129.98 675.19" stroke="#132e65" stroke-width="1.5"></path><path d="M1129.98 675.19L1259.52 667.77" stroke="#132e65" stroke-width="1.5"></path><path d="M1129.98 675.19L952.6 656.04" stroke="#132e65" stroke-width="1.5"></path><path d="M1129.98 675.19L955.01 548.55" stroke="#132e65" stroke-width="1.5"></path><path d="M1129.98 675.19L1297.34 494.54" stroke="#132e65" stroke-width="1.5"></path><path d="M1129.98 675.19L1403.1 650.47" stroke="#132e65" stroke-width="1.5"></path><path d="M1241.82 -76.12L1241.82 -76.12" stroke="#132e65" stroke-width="1.5"></path><path d="M1241.82 -76.12L1259.75 97.16" stroke="#132e65" stroke-width="1.5"></path><path d="M1241.82 -76.12L1422.64 86.21" stroke="#132e65" stroke-width="1.5"></path><path d="M1241.82 -76.12L1283.53 224.09" stroke="#132e65" stroke-width="1.5"></path><path d="M1241.82 -76.12L972.43 67.01" stroke="#132e65" stroke-width="1.5"></path><path d="M1259.75 97.16L1259.75 97.16" stroke="#132e65" stroke-width="1.5"></path><path d="M1259.75 97.16L1283.53 224.09" stroke="#132e65" stroke-width="1.5"></path><path d="M1259.75 97.16L1422.64 86.21" stroke="#132e65" stroke-width="1.5"></path><path d="M1283.53 224.09L1283.53 224.09" stroke="#132e65" stroke-width="1.5"></path><path d="M1283.53 224.09L1395.41 233.75" stroke="#132e65" stroke-width="1.5"></path><path d="M1283.53 224.09L1296.49 361.91" stroke="#132e65" stroke-width="1.5"></path><path d="M1283.53 224.09L1099.63 221.46" stroke="#132e65" stroke-width="1.5"></path><path d="M1296.49 361.91L1296.49 361.91" stroke="#132e65" stroke-width="1.5"></path><path d="M1296.49 361.91L1392.81 407.53" stroke="#132e65" stroke-width="1.5"></path><path d="M1296.49 361.91L1297.34 494.54" stroke="#132e65" stroke-width="1.5"></path><path d="M1297.34 494.54L1297.34 494.54" stroke="#132e65" stroke-width="1.5"></path><path d="M1297.34 494.54L1392.81 407.53" stroke="#132e65" stroke-width="1.5"></path><path d="M1297.34 494.54L1430.14 556.09" stroke="#132e65" stroke-width="1.5"></path><path d="M1259.52 667.77L1259.52 667.77" stroke="#132e65" stroke-width="1.5"></path><path d="M1259.52 667.77L1403.1 650.47" stroke="#132e65" stroke-width="1.5"></path><path d="M1259.52 667.77L1297.34 494.54" stroke="#132e65" stroke-width="1.5"></path><path d="M1422.64 86.21L1422.64 86.21" stroke="#132e65" stroke-width="1.5"></path><path d="M1422.64 86.21L1395.41 233.75" stroke="#132e65" stroke-width="1.5"></path><path d="M1422.64 86.21L1591.47 71.7" stroke="#132e65" stroke-width="1.5"></path><path d="M1395.41 233.75L1395.41 233.75" stroke="#132e65" stroke-width="1.5"></path><path d="M1395.41 233.75L1296.49 361.91" stroke="#132e65" stroke-width="1.5"></path><path d="M1395.41 233.75L1392.81 407.53" stroke="#132e65" stroke-width="1.5"></path><path d="M1395.41 233.75L1568.73 196.03" stroke="#132e65" stroke-width="1.5"></path><path d="M1392.81 407.53L1392.81 407.53" stroke="#132e65" stroke-width="1.5"></path><path d="M1392.81 407.53L1430.14 556.09" stroke="#132e65" stroke-width="1.5"></path><path d="M1430.14 556.09L1430.14 556.09" stroke="#132e65" stroke-width="1.5"></path><path d="M1430.14 556.09L1403.1 650.47" stroke="#132e65" stroke-width="1.5"></path><path d="M1403.1 650.47L1403.1 650.47" stroke="#132e65" stroke-width="1.5"></path><path d="M1403.1 650.47L1297.34 494.54" stroke="#132e65" stroke-width="1.5"></path><path d="M1403.1 650.47L1593.65 661.48" stroke="#132e65" stroke-width="1.5"></path><path d="M1600.15 -103.48L1600.15 -103.48" stroke="#132e65" stroke-width="1.5"></path><path d="M1600.15 -103.48L1591.47 71.7" stroke="#132e65" stroke-width="1.5"></path><path d="M1600.15 -103.48L1422.64 86.21" stroke="#132e65" stroke-width="1.5"></path><path d="M1591.47 71.7L1591.47 71.7" stroke="#132e65" stroke-width="1.5"></path><path d="M1591.47 71.7L1568.73 196.03" stroke="#132e65" stroke-width="1.5"></path><path d="M1591.47 71.7L1395.41 233.75" stroke="#132e65" stroke-width="1.5"></path><path d="M1568.73 196.03L1568.73 196.03" stroke="#132e65" stroke-width="1.5"></path><path d="M1568.73 196.03L1422.64 86.21" stroke="#132e65" stroke-width="1.5"></path><path d="M1568.73 196.03L1568.54 408.82" stroke="#132e65" stroke-width="1.5"></path><path d="M1568.73 196.03L1392.81 407.53" stroke="#132e65" stroke-width="1.5"></path><path d="M1568.73 196.03L1283.53 224.09" stroke="#132e65" stroke-width="1.5"></path><path d="M1568.54 408.82L1568.54 408.82" stroke="#132e65" stroke-width="1.5"></path><path d="M1568.54 408.82L1392.81 407.53" stroke="#132e65" stroke-width="1.5"></path><path d="M1568.54 408.82L1430.14 556.09" stroke="#132e65" stroke-width="1.5"></path><path d="M1593.65 661.48L1593.65 661.48" stroke="#132e65" stroke-width="1.5"></path><path d="M1593.65 661.48L1430.14 556.09" stroke="#132e65" stroke-width="1.5"></path><circle r="5" cx="-70.95" cy="387.4" fill="#132e65"></circle><circle r="5" cx="-46.08" cy="534.74" fill="#132e65"></circle><circle r="5" cx="-98.98" cy="661.48" fill="#132e65"></circle><circle r="5" cx="104.21" cy="346.31" fill="#132e65"></circle><circle r="5" cx="94.86" cy="555.86" fill="#132e65"></circle><circle r="5" cx="83.55" cy="652.21" fill="#132e65"></circle><circle r="5" cx="236.59" cy="511.36" fill="#132e65"></circle><circle r="5" cx="245.17" cy="661.98" fill="#132e65"></circle><circle r="5" cx="408.39" cy="379.88" fill="#132e65"></circle><circle r="5" cx="362.89" cy="511.88" fill="#132e65"></circle><circle r="5" cx="394.71" cy="704.63" fill="#132e65"></circle><circle r="5" cx="551.27" cy="401.35" fill="#132e65"></circle><circle r="5" cx="488.03" cy="521.42" fill="#132e65"></circle><circle r="5" cx="534.62" cy="695.78" fill="#132e65"></circle><circle r="5" cx="695.72" cy="242.86" fill="#132e65"></circle><circle r="5" cx="656.71" cy="399.02" fill="#132e65"></circle><circle r="5" cx="661.21" cy="493.34" fill="#132e65"></circle><circle r="5" cx="654.57" cy="653.65" fill="#132e65"></circle><circle r="5" cx="853.31" cy="72.02" fill="#132e65"></circle><circle r="5" cx="790.55" cy="231.21" fill="#132e65"></circle><circle r="5" cx="791.81" cy="346.88" fill="#132e65"></circle><circle r="5" cx="842.86" cy="551.22" fill="#132e65"></circle><circle r="5" cx="809.51" cy="664.69" fill="#132e65"></circle><circle r="5" cx="972.43" cy="67.01" fill="#132e65"></circle><circle r="5" cx="951.99" cy="226.14" fill="#132e65"></circle><circle r="5" cx="1009.41" cy="350.53" fill="#132e65"></circle><circle r="5" cx="955.01" cy="548.55" fill="#132e65"></circle><circle r="5" cx="952.6" cy="656.04" fill="#132e65"></circle><circle r="5" cx="1135.15" cy="101.7" fill="#132e65"></circle><circle r="5" cx="1099.63" cy="221.46" fill="#132e65"></circle><circle r="5" cx="1097.95" cy="344.57" fill="#132e65"></circle><circle r="5" cx="1125.98" cy="542.78" fill="#132e65"></circle><circle r="5" cx="1129.98" cy="675.19" fill="#132e65"></circle><circle r="5" cx="1241.82" cy="-76.12" fill="#132e65"></circle><circle r="5" cx="1259.75" cy="97.16" fill="#132e65"></circle><circle r="5" cx="1283.53" cy="224.09" fill="#132e65"></circle><circle r="5" cx="1296.49" cy="361.91" fill="#132e65"></circle><circle r="5" cx="1297.34" cy="494.54" fill="#132e65"></circle><circle r="5" cx="1259.52" cy="667.77" fill="#132e65"></circle><circle r="5" cx="1422.64" cy="86.21" fill="#132e65"></circle><circle r="5" cx="1395.41" cy="233.75" fill="#132e65"></circle><circle r="5" cx="1392.81" cy="407.53" fill="#132e65"></circle><circle r="5" cx="1430.14" cy="556.09" fill="#132e65"></circle><circle r="5" cx="1403.1" cy="650.47" fill="#132e65"></circle><circle r="5" cx="1600.15" cy="-103.48" fill="#132e65"></circle><circle r="5" cx="1591.47" cy="71.7" fill="#132e65"></circle><circle r="5" cx="1568.73" cy="196.03" fill="#132e65"></circle><circle r="5" cx="1568.54" cy="408.82" fill="#132e65"></circle><circle r="5" cx="1593.65" cy="661.48" fill="#132e65"></circle><path d="M213.44 640.88L213.44 640.88" stroke="hsl(228.5, 77.2%, 51.5%)" stroke-width="1.5"></path><path d="M213.44 640.88L104.07 657.27" stroke="hsl(228.5, 77.2%, 51.5%)" stroke-width="1.5"></path><path d="M377.7 501.34L377.7 501.34" stroke="hsl(228.5, 77.2%, 51.5%)" stroke-width="1.5"></path><path d="M377.7 501.34L488.84 557.87" stroke="hsl(228.5, 77.2%, 51.5%)" stroke-width="1.5"></path><path d="M377.7 501.34L402.65 675.08" stroke="hsl(228.5, 77.2%, 51.5%)" stroke-width="1.5"></path><path d="M377.7 501.34L518.05 654.16" stroke="hsl(228.5, 77.2%, 51.5%)" stroke-width="1.5"></path><path d="M377.7 501.34L213.44 640.88" stroke="hsl(228.5, 77.2%, 51.5%)" stroke-width="1.5"></path><path d="M377.7 501.34L73.56 493.18" stroke="hsl(228.5, 77.2%, 51.5%)" stroke-width="1.5"></path><path d="M377.7 501.34L104.07 657.27" stroke="hsl(228.5, 77.2%, 51.5%)" stroke-width="1.5"></path><path d="M1152.57 75.01L1152.57 75.01" stroke="hsl(228.5, 77.2%, 51.5%)" stroke-width="1.5"></path><path d="M1152.57 75.01L1293.8 53.34" stroke="hsl(228.5, 77.2%, 51.5%)" stroke-width="1.5"></path><path d="M1153.51 340.38L1153.51 340.38" stroke="hsl(228.5, 77.2%, 51.5%)" stroke-width="1.5"></path><path d="M1153.51 340.38L1246.94 386.64" stroke="hsl(228.5, 77.2%, 51.5%)" stroke-width="1.5"></path><path d="M1153.51 340.38L1146.56 234.38" stroke="hsl(228.5, 77.2%, 51.5%)" stroke-width="1.5"></path><path d="M1153.51 340.38L1280.31 253.78" stroke="hsl(228.5, 77.2%, 51.5%)" stroke-width="1.5"></path><path d="M1153.51 340.38L989.05 235.45" stroke="hsl(228.5, 77.2%, 51.5%)" stroke-width="1.5"></path><path d="M1153.51 340.38L951.19 407.88" stroke="hsl(228.5, 77.2%, 51.5%)" stroke-width="1.5"></path><path d="M1153.51 340.38L1296.99 548.11" stroke="hsl(228.5, 77.2%, 51.5%)" stroke-width="1.5"></path><path d="M1279.72 -105.31L1279.72 -105.31" stroke="hsl(228.5, 77.2%, 51.5%)" stroke-width="1.5"></path><path d="M1279.72 -105.31L1293.8 53.34" stroke="hsl(228.5, 77.2%, 51.5%)" stroke-width="1.5"></path><path d="M1279.72 -105.31L1445.25 -62.46" stroke="hsl(228.5, 77.2%, 51.5%)" stroke-width="1.5"></path><path d="M1279.72 -105.31L1405.53 69.64" stroke="hsl(228.5, 77.2%, 51.5%)" stroke-width="1.5"></path><path d="M1279.72 -105.31L1152.57 75.01" stroke="hsl(228.5, 77.2%, 51.5%)" stroke-width="1.5"></path><path d="M1279.72 -105.31L1594.81 -106.96" stroke="hsl(228.5, 77.2%, 51.5%)" stroke-width="1.5"></path><path d="M1279.72 -105.31L1593.71 67.23" stroke="hsl(228.5, 77.2%, 51.5%)" stroke-width="1.5"></path><path d="M1293.8 53.34L1293.8 53.34" stroke="hsl(228.5, 77.2%, 51.5%)" stroke-width="1.5"></path><path d="M1293.8 53.34L1405.53 69.64" stroke="hsl(228.5, 77.2%, 51.5%)" stroke-width="1.5"></path><path d="M1293.8 53.34L1445.25 -62.46" stroke="hsl(228.5, 77.2%, 51.5%)" stroke-width="1.5"></path><path d="M1293.8 53.34L1280.31 253.78" stroke="hsl(228.5, 77.2%, 51.5%)" stroke-width="1.5"></path><path d="M1293.8 53.34L1146.56 234.38" stroke="hsl(228.5, 77.2%, 51.5%)" stroke-width="1.5"></path><path d="M1296.99 548.11L1296.99 548.11" stroke="hsl(228.5, 77.2%, 51.5%)" stroke-width="1.5"></path><path d="M1296.99 548.11L1426.54 507.99" stroke="hsl(228.5, 77.2%, 51.5%)" stroke-width="1.5"></path><path d="M1296.99 548.11L1242.29 700.44" stroke="hsl(228.5, 77.2%, 51.5%)" stroke-width="1.5"></path><path d="M1296.99 548.11L1420.29 659.58" stroke="hsl(228.5, 77.2%, 51.5%)" stroke-width="1.5"></path><path d="M1420.29 659.58L1420.29 659.58" stroke="hsl(228.5, 77.2%, 51.5%)" stroke-width="1.5"></path><path d="M1420.29 659.58L1426.54 507.99" stroke="hsl(228.5, 77.2%, 51.5%)" stroke-width="1.5"></path><path d="M1420.29 659.58L1590.31 678.34" stroke="hsl(228.5, 77.2%, 51.5%)" stroke-width="1.5"></path><path d="M1590.31 678.34L1590.31 678.34" stroke="hsl(228.5, 77.2%, 51.5%)" stroke-width="1.5"></path><path d="M1590.31 678.34L1566.89 523" stroke="hsl(228.5, 77.2%, 51.5%)" stroke-width="1.5"></path><path d="M-70.52 525.78L-70.52 525.78" stroke="hsl(228.5, 77.2%, 51.5%)" stroke-width="1.5"></path><path d="M-70.52 525.78L-45.48 670.09" stroke="hsl(228.5, 77.2%, 51.5%)" stroke-width="1.5"></path><path d="M-70.52 525.78L73.56 493.18" stroke="hsl(228.5, 77.2%, 51.5%)" stroke-width="1.5"></path><path d="M-70.52 525.78L104.07 657.27" stroke="hsl(228.5, 77.2%, 51.5%)" stroke-width="1.5"></path><path d="M-70.52 525.78L213.44 640.88" stroke="hsl(228.5, 77.2%, 51.5%)" stroke-width="1.5"></path><path d="M-70.52 525.78L377.7 501.34" stroke="hsl(228.5, 77.2%, 51.5%)" stroke-width="1.5"></path><path d="M-45.48 670.09L-45.48 670.09" stroke="hsl(228.5, 77.2%, 51.5%)" stroke-width="1.5"></path><path d="M-45.48 670.09L104.07 657.27" stroke="hsl(228.5, 77.2%, 51.5%)" stroke-width="1.5"></path><path d="M-45.48 670.09L73.56 493.18" stroke="hsl(228.5, 77.2%, 51.5%)" stroke-width="1.5"></path><path d="M-45.48 670.09L213.44 640.88" stroke="hsl(228.5, 77.2%, 51.5%)" stroke-width="1.5"></path><path d="M-45.48 670.09L402.65 675.08" stroke="hsl(228.5, 77.2%, 51.5%)" stroke-width="1.5"></path><path d="M73.56 493.18L73.56 493.18" stroke="hsl(228.5, 77.2%, 51.5%)" stroke-width="1.5"></path><path d="M73.56 493.18L104.07 657.27" stroke="hsl(228.5, 77.2%, 51.5%)" stroke-width="1.5"></path><path d="M73.56 493.18L213.44 640.88" stroke="hsl(228.5, 77.2%, 51.5%)" stroke-width="1.5"></path><path d="M104.07 657.27L104.07 657.27" stroke="hsl(228.5, 77.2%, 51.5%)" stroke-width="1.5"></path><path d="M104.07 657.27L402.65 675.08" stroke="hsl(228.5, 77.2%, 51.5%)" stroke-width="1.5"></path><path d="M402.65 675.08L402.65 675.08" stroke="hsl(228.5, 77.2%, 51.5%)" stroke-width="1.5"></path><path d="M402.65 675.08L518.05 654.16" stroke="hsl(228.5, 77.2%, 51.5%)" stroke-width="1.5"></path><path d="M402.65 675.08L488.84 557.87" stroke="hsl(228.5, 77.2%, 51.5%)" stroke-width="1.5"></path><path d="M488.84 557.87L488.84 557.87" stroke="hsl(228.5, 77.2%, 51.5%)" stroke-width="1.5"></path><path d="M488.84 557.87L518.05 654.16" stroke="hsl(228.5, 77.2%, 51.5%)" stroke-width="1.5"></path><path d="M488.84 557.87L665.5 656.81" stroke="hsl(228.5, 77.2%, 51.5%)" stroke-width="1.5"></path><path d="M488.84 557.87L675.76 365.6" stroke="hsl(228.5, 77.2%, 51.5%)" stroke-width="1.5"></path><path d="M488.84 557.87L213.44 640.88" stroke="hsl(228.5, 77.2%, 51.5%)" stroke-width="1.5"></path><path d="M518.05 654.16L518.05 654.16" stroke="hsl(228.5, 77.2%, 51.5%)" stroke-width="1.5"></path><path d="M675.76 365.6L675.76 365.6" stroke="hsl(228.5, 77.2%, 51.5%)" stroke-width="1.5"></path><path d="M675.76 365.6L859.82 408.55" stroke="hsl(228.5, 77.2%, 51.5%)" stroke-width="1.5"></path><path d="M675.76 365.6L819.81 494.55" stroke="hsl(228.5, 77.2%, 51.5%)" stroke-width="1.5"></path><path d="M675.76 365.6L951.19 407.88" stroke="hsl(228.5, 77.2%, 51.5%)" stroke-width="1.5"></path><path d="M665.5 656.81L665.5 656.81" stroke="hsl(228.5, 77.2%, 51.5%)" stroke-width="1.5"></path><path d="M665.5 656.81L805.75 640.76" stroke="hsl(228.5, 77.2%, 51.5%)" stroke-width="1.5"></path><path d="M665.5 656.81L518.05 654.16" stroke="hsl(228.5, 77.2%, 51.5%)" stroke-width="1.5"></path><path d="M859.82 408.55L859.82 408.55" stroke="hsl(228.5, 77.2%, 51.5%)" stroke-width="1.5"></path><path d="M859.82 408.55L951.19 407.88" stroke="hsl(228.5, 77.2%, 51.5%)" stroke-width="1.5"></path><path d="M859.82 408.55L819.81 494.55" stroke="hsl(228.5, 77.2%, 51.5%)" stroke-width="1.5"></path><path d="M859.82 408.55L968.45 552.6" stroke="hsl(228.5, 77.2%, 51.5%)" stroke-width="1.5"></path><path d="M819.81 494.55L819.81 494.55" stroke="hsl(228.5, 77.2%, 51.5%)" stroke-width="1.5"></path><path d="M819.81 494.55L805.75 640.76" stroke="hsl(228.5, 77.2%, 51.5%)" stroke-width="1.5"></path><path d="M819.81 494.55L951.19 407.88" stroke="hsl(228.5, 77.2%, 51.5%)" stroke-width="1.5"></path><path d="M819.81 494.55L968.45 552.6" stroke="hsl(228.5, 77.2%, 51.5%)" stroke-width="1.5"></path><path d="M805.75 640.76L805.75 640.76" stroke="hsl(228.5, 77.2%, 51.5%)" stroke-width="1.5"></path><path d="M805.75 640.76L968.45 552.6" stroke="hsl(228.5, 77.2%, 51.5%)" stroke-width="1.5"></path><path d="M805.75 640.76L1011.28 646.99" stroke="hsl(228.5, 77.2%, 51.5%)" stroke-width="1.5"></path><path d="M989.05 235.45L989.05 235.45" stroke="hsl(228.5, 77.2%, 51.5%)" stroke-width="1.5"></path><path d="M989.05 235.45L1146.56 234.38" stroke="hsl(228.5, 77.2%, 51.5%)" stroke-width="1.5"></path><path d="M989.05 235.45L951.19 407.88" stroke="hsl(228.5, 77.2%, 51.5%)" stroke-width="1.5"></path><path d="M989.05 235.45L859.82 408.55" stroke="hsl(228.5, 77.2%, 51.5%)" stroke-width="1.5"></path><path d="M989.05 235.45L1152.57 75.01" stroke="hsl(228.5, 77.2%, 51.5%)" stroke-width="1.5"></path><path d="M989.05 235.45L1280.31 253.78" stroke="hsl(228.5, 77.2%, 51.5%)" stroke-width="1.5"></path><path d="M951.19 407.88L951.19 407.88" stroke="hsl(228.5, 77.2%, 51.5%)" stroke-width="1.5"></path><path d="M951.19 407.88L968.45 552.6" stroke="hsl(228.5, 77.2%, 51.5%)" stroke-width="1.5"></path><path d="M968.45 552.6L968.45 552.6" stroke="hsl(228.5, 77.2%, 51.5%)" stroke-width="1.5"></path><path d="M968.45 552.6L1011.28 646.99" stroke="hsl(228.5, 77.2%, 51.5%)" stroke-width="1.5"></path><path d="M1011.28 646.99L1011.28 646.99" stroke="hsl(228.5, 77.2%, 51.5%)" stroke-width="1.5"></path><path d="M1011.28 646.99L1142.31 671.8" stroke="hsl(228.5, 77.2%, 51.5%)" stroke-width="1.5"></path><path d="M1011.28 646.99L1242.29 700.44" stroke="hsl(228.5, 77.2%, 51.5%)" stroke-width="1.5"></path><path d="M1146.56 234.38L1146.56 234.38" stroke="hsl(228.5, 77.2%, 51.5%)" stroke-width="1.5"></path><path d="M1146.56 234.38L1280.31 253.78" stroke="hsl(228.5, 77.2%, 51.5%)" stroke-width="1.5"></path><path d="M1146.56 234.38L1152.57 75.01" stroke="hsl(228.5, 77.2%, 51.5%)" stroke-width="1.5"></path><path d="M1146.56 234.38L1246.94 386.64" stroke="hsl(228.5, 77.2%, 51.5%)" stroke-width="1.5"></path><path d="M1142.31 671.8L1142.31 671.8" stroke="hsl(228.5, 77.2%, 51.5%)" stroke-width="1.5"></path><path d="M1142.31 671.8L1242.29 700.44" stroke="hsl(228.5, 77.2%, 51.5%)" stroke-width="1.5"></path><path d="M1142.31 671.8L1296.99 548.11" stroke="hsl(228.5, 77.2%, 51.5%)" stroke-width="1.5"></path><path d="M1142.31 671.8L968.45 552.6" stroke="hsl(228.5, 77.2%, 51.5%)" stroke-width="1.5"></path><path d="M1142.31 671.8L1420.29 659.58" stroke="hsl(228.5, 77.2%, 51.5%)" stroke-width="1.5"></path><path d="M1280.31 253.78L1280.31 253.78" stroke="hsl(228.5, 77.2%, 51.5%)" stroke-width="1.5"></path><path d="M1280.31 253.78L1246.94 386.64" stroke="hsl(228.5, 77.2%, 51.5%)" stroke-width="1.5"></path><path d="M1280.31 253.78L1409.98 365.42" stroke="hsl(228.5, 77.2%, 51.5%)" stroke-width="1.5"></path><path d="M1280.31 253.78L1152.57 75.01" stroke="hsl(228.5, 77.2%, 51.5%)" stroke-width="1.5"></path><path d="M1246.94 386.64L1246.94 386.64" stroke="hsl(228.5, 77.2%, 51.5%)" stroke-width="1.5"></path><path d="M1246.94 386.64L1409.98 365.42" stroke="hsl(228.5, 77.2%, 51.5%)" stroke-width="1.5"></path><path d="M1242.29 700.44L1242.29 700.44" stroke="hsl(228.5, 77.2%, 51.5%)" stroke-width="1.5"></path><path d="M1242.29 700.44L1420.29 659.58" stroke="hsl(228.5, 77.2%, 51.5%)" stroke-width="1.5"></path><path d="M1242.29 700.44L1426.54 507.99" stroke="hsl(228.5, 77.2%, 51.5%)" stroke-width="1.5"></path><path d="M1445.25 -62.46L1445.25 -62.46" stroke="hsl(228.5, 77.2%, 51.5%)" stroke-width="1.5"></path><path d="M1445.25 -62.46L1405.53 69.64" stroke="hsl(228.5, 77.2%, 51.5%)" stroke-width="1.5"></path><path d="M1445.25 -62.46L1594.81 -106.96" stroke="hsl(228.5, 77.2%, 51.5%)" stroke-width="1.5"></path><path d="M1405.53 69.64L1405.53 69.64" stroke="hsl(228.5, 77.2%, 51.5%)" stroke-width="1.5"></path><path d="M1405.53 69.64L1593.71 67.23" stroke="hsl(228.5, 77.2%, 51.5%)" stroke-width="1.5"></path><path d="M1405.53 69.64L1280.31 253.78" stroke="hsl(228.5, 77.2%, 51.5%)" stroke-width="1.5"></path><path d="M1409.98 365.42L1409.98 365.42" stroke="hsl(228.5, 77.2%, 51.5%)" stroke-width="1.5"></path><path d="M1409.98 365.42L1541.54 359.59" stroke="hsl(228.5, 77.2%, 51.5%)" stroke-width="1.5"></path><path d="M1409.98 365.42L1426.54 507.99" stroke="hsl(228.5, 77.2%, 51.5%)" stroke-width="1.5"></path><path d="M1426.54 507.99L1426.54 507.99" stroke="hsl(228.5, 77.2%, 51.5%)" stroke-width="1.5"></path><path d="M1426.54 507.99L1566.89 523" stroke="hsl(228.5, 77.2%, 51.5%)" stroke-width="1.5"></path><path d="M1426.54 507.99L1541.54 359.59" stroke="hsl(228.5, 77.2%, 51.5%)" stroke-width="1.5"></path><path d="M1426.54 507.99L1246.94 386.64" stroke="hsl(228.5, 77.2%, 51.5%)" stroke-width="1.5"></path><path d="M1594.81 -106.96L1594.81 -106.96" stroke="hsl(228.5, 77.2%, 51.5%)" stroke-width="1.5"></path><path d="M1594.81 -106.96L1593.71 67.23" stroke="hsl(228.5, 77.2%, 51.5%)" stroke-width="1.5"></path><path d="M1593.71 67.23L1593.71 67.23" stroke="hsl(228.5, 77.2%, 51.5%)" stroke-width="1.5"></path><path d="M1593.71 67.23L1598.31 217.67" stroke="hsl(228.5, 77.2%, 51.5%)" stroke-width="1.5"></path><path d="M1598.31 217.67L1598.31 217.67" stroke="hsl(228.5, 77.2%, 51.5%)" stroke-width="1.5"></path><path d="M1598.31 217.67L1541.54 359.59" stroke="hsl(228.5, 77.2%, 51.5%)" stroke-width="1.5"></path><path d="M1541.54 359.59L1541.54 359.59" stroke="hsl(228.5, 77.2%, 51.5%)" stroke-width="1.5"></path><path d="M1566.89 523L1566.89 523" stroke="hsl(228.5, 77.2%, 51.5%)" stroke-width="1.5"></path><path d="M1566.89 523L1541.54 359.59" stroke="hsl(228.5, 77.2%, 51.5%)" stroke-width="1.5"></path><path d="M1566.89 523L1420.29 659.58" stroke="hsl(228.5, 77.2%, 51.5%)" stroke-width="1.5"></path><circle r="25" cx="213.44" cy="640.88" fill="url(&quot;#SvgjsRadialGradient1616&quot;)"></circle><circle r="25" cx="377.7" cy="501.34" fill="url(&quot;#SvgjsRadialGradient1616&quot;)"></circle><circle r="25" cx="1152.57" cy="75.01" fill="url(&quot;#SvgjsRadialGradient1616&quot;)"></circle><circle r="25" cx="1153.51" cy="340.38" fill="url(&quot;#SvgjsRadialGradient1616&quot;)"></circle><circle r="25" cx="1279.72" cy="-105.31" fill="url(&quot;#SvgjsRadialGradient1616&quot;)"></circle><circle r="25" cx="1293.8" cy="53.34" fill="url(&quot;#SvgjsRadialGradient1616&quot;)"></circle><circle r="25" cx="1296.99" cy="548.11" fill="url(&quot;#SvgjsRadialGradient1616&quot;)"></circle><circle r="25" cx="1420.29" cy="659.58" fill="url(&quot;#SvgjsRadialGradient1616&quot;)"></circle><circle r="25" cx="1590.31" cy="678.34" fill="url(&quot;#SvgjsRadialGradient1616&quot;)"></circle><circle r="5" cx="-70.52" cy="525.78" fill="#8b9ad9"></circle><circle r="5" cx="-45.48" cy="670.09" fill="#8b9ad9"></circle><circle r="5" cx="73.56" cy="493.18" fill="#8b9ad9"></circle><circle r="5" cx="104.07" cy="657.27" fill="#8b9ad9"></circle><circle r="5" cx="402.65" cy="675.08" fill="#8b9ad9"></circle><circle r="5" cx="488.84" cy="557.87" fill="#8b9ad9"></circle><circle r="5" cx="518.05" cy="654.16" fill="#8b9ad9"></circle><circle r="5" cx="675.76" cy="365.6" fill="#8b9ad9"></circle><circle r="5" cx="665.5" cy="656.81" fill="#8b9ad9"></circle><circle r="5" cx="859.82" cy="408.55" fill="#8b9ad9"></circle><circle r="5" cx="819.81" cy="494.55" fill="#8b9ad9"></circle><circle r="5" cx="805.75" cy="640.76" fill="#8b9ad9"></circle><circle r="5" cx="989.05" cy="235.45" fill="#8b9ad9"></circle><circle r="5" cx="951.19" cy="407.88" fill="#8b9ad9"></circle><circle r="5" cx="968.45" cy="552.6" fill="#8b9ad9"></circle><circle r="5" cx="1011.28" cy="646.99" fill="#8b9ad9"></circle><circle r="5" cx="1146.56" cy="234.38" fill="#8b9ad9"></circle><circle r="5" cx="1142.31" cy="671.8" fill="#8b9ad9"></circle><circle r="5" cx="1280.31" cy="253.78" fill="#8b9ad9"></circle><circle r="5" cx="1246.94" cy="386.64" fill="#8b9ad9"></circle><circle r="5" cx="1242.29" cy="700.44" fill="#8b9ad9"></circle><circle r="5" cx="1445.25" cy="-62.46" fill="#8b9ad9"></circle><circle r="5" cx="1405.53" cy="69.64" fill="#8b9ad9"></circle><circle r="5" cx="1409.98" cy="365.42" fill="#8b9ad9"></circle><circle r="5" cx="1426.54" cy="507.99" fill="#8b9ad9"></circle><circle r="5" cx="1594.81" cy="-106.96" fill="#8b9ad9"></circle><circle r="5" cx="1593.71" cy="67.23" fill="#8b9ad9"></circle><circle r="5" cx="1598.31" cy="217.67" fill="#8b9ad9"></circle><circle r="5" cx="1541.54" cy="359.59" fill="#8b9ad9"></circle><circle r="5" cx="1566.89" cy="523" fill="#8b9ad9"></circle></g><defs><mask id="SvgjsMask1614"><rect width="1440" height="560" fill="#ffffff"></rect></mask><linearGradient x1="50%" y1="100%" x2="50%" y2="0%" gradientUnits="userSpaceOnUse" id="SvgjsLinearGradient1615"><stop stop-color="#0e2a47" offset="0"></stop><stop stop-color="rgba(218, 202, 4, 1)" offset="1"></stop></linearGradient><radialGradient id="SvgjsRadialGradient1616"><stop stop-color="#ffffff" offset="0.1"></stop><stop stop-color="#1735b3" offset="0.2"></stop><stop stop-color="rgba(23, 53, 179, 0)" offset="1"></stop></radialGradient></defs></svg>