<svg xmlns="http://www.w3.org/2000/svg" version="1.1" xmlns:xlink="http://www.w3.org/1999/xlink" xmlns:svgjs="http://svgjs.dev/svgjs" width="1440" height="560" preserveAspectRatio="none" viewBox="0 0 1440 560"><g mask="url(&quot;#SvgjsMask1409&quot;)" fill="none"><rect width="1440" height="560" x="0" y="0" fill="url(&quot;#SvgjsLinearGradient1410&quot;)"></rect><path d="M0 0L339.09 0L0 252.23z" fill="rgba(255, 255, 255, .1)"></path><path d="M0 252.23L339.09 0L615.3399999999999 0L0 402.7z" fill="rgba(255, 255, 255, .075)"></path><path d="M0 402.7L615.3399999999999 0L1064.1999999999998 0L0 482.53999999999996z" fill="rgba(255, 255, 255, .05)"></path><path d="M0 482.53999999999996L1064.1999999999998 0L1081.5199999999998 0L0 483.4z" fill="rgba(255, 255, 255, .025)"></path><path d="M1440 560L1055.97 560L1440 307.89z" fill="rgba(0, 0, 0, .1)"></path><path d="M1440 307.89L1055.97 560L539.77 560L1440 197.62z" fill="rgba(0, 0, 0, .075)"></path><path d="M1440 197.62L539.77 560L300.89 560L1440 74.18z" fill="rgba(0, 0, 0, .05)"></path><path d="M1440 74.18L300.8899999999999 560L283.3199999999999 560L1440 46.10000000000001z" fill="rgba(0, 0, 0, .025)"></path></g><defs><mask id="SvgjsMask1409"><rect width="1440" height="560" fill="#ffffff"></rect></mask><linearGradient x1="15.28%" y1="-39.29%" x2="84.72%" y2="139.29%" gradientUnits="userSpaceOnUse" id="SvgjsLinearGradient1410"><stop stop-color="#0e2a47" offset="0"></stop><stop stop-color="rgba(33, 124, 119, 1)" offset="1"></stop></linearGradient></defs></svg>